<mxfile host="app.diagrams.net" modified="2022-03-22T12:35:59.301Z" agent="5.0 (Windows)" etag="eGrtbbTDK4eD4xfidCwZ" version="15.9.4" type="github">
  <diagram id="79-s5XHoGDIOHGQPfeBm" name="Page-1">
    <mxGraphModel dx="1422" dy="752" grid="1" gridSize="10" guides="1" tooltips="1" connect="1" arrows="1" fold="1" page="1" pageScale="1" pageWidth="827" pageHeight="1169" math="0" shadow="0">
      <root>
        <mxCell id="0" />
        <mxCell id="1" parent="0" />
        <mxCell id="lj4PL6lqvF0ZKJ8xrtYB-1" value="Sender" style="text;html=1;resizable=0;autosize=1;align=center;verticalAlign=middle;points=[];fillColor=none;strokeColor=none;rounded=0;fontSize=20;" vertex="1" parent="1">
          <mxGeometry x="107.5" y="320" width="80" height="30" as="geometry" />
        </mxCell>
        <mxCell id="lj4PL6lqvF0ZKJ8xrtYB-2" value="Receiver" style="text;html=1;resizable=0;autosize=1;align=center;verticalAlign=middle;points=[];fillColor=none;strokeColor=none;rounded=0;fontSize=20;" vertex="1" parent="1">
          <mxGeometry x="602.5" y="320" width="90" height="30" as="geometry" />
        </mxCell>
        <mxCell id="lj4PL6lqvF0ZKJ8xrtYB-3" value="$process-message" style="text;html=1;resizable=0;autosize=1;align=center;verticalAlign=middle;points=[];fillColor=none;strokeColor=none;rounded=0;fontSize=20;" vertex="1" parent="1">
          <mxGeometry x="310" y="10" width="180" height="30" as="geometry" />
        </mxCell>
        <mxCell id="lj4PL6lqvF0ZKJ8xrtYB-4" value="BARS Bundle Message" style="text;html=1;resizable=0;autosize=1;align=center;verticalAlign=middle;points=[];fillColor=none;strokeColor=none;rounded=0;fontSize=16;" vertex="1" parent="1">
          <mxGeometry x="310" y="85" width="180" height="20" as="geometry" />
        </mxCell>
        <mxCell id="lj4PL6lqvF0ZKJ8xrtYB-5" value="BARS MessageDefinition Booking-Request" style="text;html=1;resizable=0;autosize=1;align=center;verticalAlign=middle;points=[];fillColor=none;strokeColor=none;rounded=0;fontSize=16;" vertex="1" parent="1">
          <mxGeometry x="236" y="145" width="320" height="20" as="geometry" />
        </mxCell>
        <mxCell id="lj4PL6lqvF0ZKJ8xrtYB-6" value="BARS MessageDefinition ServiceRequest-Request" style="text;html=1;resizable=0;autosize=1;align=center;verticalAlign=middle;points=[];fillColor=none;strokeColor=none;rounded=0;fontSize=16;" vertex="1" parent="1">
          <mxGeometry x="206" y="200" width="380" height="20" as="geometry" />
        </mxCell>
        <mxCell id="lj4PL6lqvF0ZKJ8xrtYB-7" value="BARS MessageDefinition ServiceRequest-Response" style="text;html=1;resizable=0;autosize=1;align=center;verticalAlign=middle;points=[];fillColor=none;strokeColor=none;rounded=0;fontSize=16;" vertex="1" parent="1">
          <mxGeometry x="205" y="260" width="390" height="20" as="geometry" />
        </mxCell>
        <mxCell id="lj4PL6lqvF0ZKJ8xrtYB-8" value="BARS MessageHeader - Booking-Request" style="text;html=1;resizable=0;autosize=1;align=center;verticalAlign=middle;points=[];fillColor=none;strokeColor=none;rounded=0;fontSize=16;" vertex="1" parent="1">
          <mxGeometry x="40" y="390" width="320" height="20" as="geometry" />
        </mxCell>
        <mxCell id="lj4PL6lqvF0ZKJ8xrtYB-9" value="BARS MessageHeader - ServiceRequest-Request" style="text;html=1;resizable=0;autosize=1;align=center;verticalAlign=middle;points=[];fillColor=none;strokeColor=none;rounded=0;fontSize=16;" vertex="1" parent="1">
          <mxGeometry x="40" y="480" width="370" height="20" as="geometry" />
        </mxCell>
        <mxCell id="lj4PL6lqvF0ZKJ8xrtYB-10" value="BARS MessageHeader - ServiceRequest-Response" style="text;html=1;resizable=0;autosize=1;align=center;verticalAlign=middle;points=[];fillColor=none;strokeColor=none;rounded=0;fontSize=16;" vertex="1" parent="1">
          <mxGeometry x="419" y="480" width="390" height="20" as="geometry" />
        </mxCell>
        <mxCell id="lj4PL6lqvF0ZKJ8xrtYB-11" value="BARS ServiceRequest-Request Referral" style="text;html=1;resizable=0;autosize=1;align=center;verticalAlign=middle;points=[];fillColor=none;strokeColor=none;rounded=0;fontSize=16;" vertex="1" parent="1">
          <mxGeometry x="264" y="530" width="300" height="20" as="geometry" />
        </mxCell>
        <mxCell id="lj4PL6lqvF0ZKJ8xrtYB-12" value="BARS ServiceRequest-Request Validation" style="text;html=1;resizable=0;autosize=1;align=center;verticalAlign=middle;points=[];fillColor=none;strokeColor=none;rounded=0;fontSize=16;" vertex="1" parent="1">
          <mxGeometry x="264" y="575" width="310" height="20" as="geometry" />
        </mxCell>
      </root>
    </mxGraphModel>
  </diagram>
</mxfile>
